<svg width="29" height="26" viewBox="0 0 29 26" fill="none" xmlns="http://www.w3.org/2000/svg">
<path fill-rule="evenodd" clip-rule="evenodd" d="M20.3804 6.08612C20.3804 9.4474 17.6556 12.1722 14.2943 12.1722C10.933 12.1722 8.20819 9.4474 8.20819 6.08612C8.20819 2.72485 10.933 0 14.2943 0C17.6556 0 20.3804 2.72485 20.3804 6.08612ZM18.3517 6.08612C18.3517 8.32697 16.5352 10.1435 14.2943 10.1435C12.0535 10.1435 10.2369 8.32697 10.2369 6.08612C10.2369 3.84527 12.0535 2.02871 14.2943 2.02871C16.5352 2.02871 18.3517 3.84527 18.3517 6.08612Z" fill="#4F378A"/>
<path d="M14.2943 15.2153C7.727 15.2153 2.13148 19.0987 0 24.5393C0.519243 25.0549 1.06623 25.5426 1.63851 26C3.22572 21.0049 8.20486 17.244 14.2943 17.244C20.3838 17.244 25.3629 21.0049 26.9501 26C27.5224 25.5426 28.0694 25.0549 28.5886 24.5393C26.4572 19.0987 20.8616 15.2153 14.2943 15.2153Z" fill="#4F378A"/>
</svg>
