<svg width="952" height="124" viewBox="0 0 952 124" fill="none" xmlns="http://www.w3.org/2000/svg">
<rect x="0.5" y="0.5" width="15" height="15" rx="1.5" stroke="#F1F1F1"/>
<rect x="0.5" y="18.5" width="15" height="15" rx="1.5" stroke="#F1F1F1"/>
<rect x="0.5" y="36.5" width="15" height="15" rx="1.5" stroke="#F1F1F1"/>
<mask id="path-4-inside-1_66_2226" fill="white">
<path d="M0 56C0 54.8954 0.895431 54 2 54H14C15.1046 54 16 54.8954 16 56V68C16 69.1046 15.1046 70 14 70H2C0.895431 70 0 69.1046 0 68V56Z"/>
</mask>
<path d="M0 56C0 54.8954 0.895431 54 2 54H14C15.1046 54 16 54.8954 16 56V68C16 69.1046 15.1046 70 14 70H2C0.895431 70 0 69.1046 0 68V56Z" fill="#F1F1F1"/>
<path d="M0 56C0 53.7909 1.79086 52 4 52H12C14.2091 52 16 53.7909 16 56C16 56 15.1046 56 14 56H2C0.895431 56 0 56 0 56ZM0 56M16 70H0H16M16 70M0 70V54V70M0 70M16 54V70V54" fill="#E0E4E8" mask="url(#path-4-inside-1_66_2226)"/>
<rect y="72" width="16" height="16" rx="2" fill="#F1F1F1"/>
<rect y="90" width="16" height="16" rx="2" fill="#F1F1F1"/>
<rect y="108" width="16" height="16" rx="2" fill="#F1F1F1"/>
<rect x="18" width="16" height="16" rx="2" fill="#F1F1F1"/>
<rect x="18" y="18" width="16" height="16" rx="2" fill="#F1F1F1"/>
<rect x="18" y="36" width="16" height="16" rx="2" fill="#FFBC48"/>
<rect x="18" y="54" width="16" height="16" rx="2" fill="#FFBC48"/>
<rect x="18" y="72" width="16" height="16" rx="2" fill="#F1F1F1"/>
<rect x="18" y="90" width="16" height="16" rx="2" fill="#F1F1F1"/>
<rect x="18" y="108" width="16" height="16" rx="2" fill="#F1F1F1"/>
<rect x="36" width="16" height="16" rx="2" fill="#F1F1F1"/>
<rect x="36" y="18" width="16" height="16" rx="2" fill="#F1F1F1"/>
<rect x="36" y="36" width="16" height="16" rx="2" fill="#F1F1F1"/>
<rect x="36" y="54" width="16" height="16" rx="2" fill="#F1F1F1"/>
<rect x="36" y="72" width="16" height="16" rx="2" fill="#FFE3BA"/>
<rect x="36" y="90" width="16" height="16" rx="2" fill="#F1F1F1"/>
<rect x="36" y="108" width="16" height="16" rx="2" fill="#F1F1F1"/>
<rect x="54" width="16" height="16" rx="2" fill="#FFE3BA"/>
<rect x="54" y="18" width="16" height="16" rx="2" fill="#FFE3BA"/>
<rect x="54" y="36" width="16" height="16" rx="2" fill="#F1F1F1"/>
<rect x="54" y="54" width="16" height="16" rx="2" fill="#F1F1F1"/>
<rect x="54" y="72" width="16" height="16" rx="2" fill="#FFBC48"/>
<rect x="54" y="90" width="16" height="16" rx="2" fill="#F1F1F1"/>
<rect x="54" y="108" width="16" height="16" rx="2" fill="#F1F1F1"/>
<rect x="72" width="16" height="16" rx="2" fill="#F1F1F1"/>
<rect x="72" y="18" width="16" height="16" rx="2" fill="#F1F1F1"/>
<rect x="72" y="36" width="16" height="16" rx="2" fill="#F1F1F1"/>
<rect x="72" y="54" width="16" height="16" rx="2" fill="#FFE3BA"/>
<rect x="72" y="72" width="16" height="16" rx="2" fill="#FFE3BA"/>
<rect x="72" y="90" width="16" height="16" rx="2" fill="#F1F1F1"/>
<mask id="path-36-inside-2_66_2226" fill="white">
<path d="M72 110C72 108.895 72.8954 108 74 108H86C87.1046 108 88 108.895 88 110V122C88 123.105 87.1046 124 86 124H74C72.8954 124 72 123.105 72 122V110Z"/>
</mask>
<path d="M72 110C72 108.895 72.8954 108 74 108H86C87.1046 108 88 108.895 88 110V122C88 123.105 87.1046 124 86 124H74C72.8954 124 72 123.105 72 122V110Z" fill="#F1F1F1"/>
<path d="M72 110C72 107.791 73.7909 106 76 106H84C86.2091 106 88 107.791 88 110C88 110 87.1046 110 86 110H74C72.8954 110 72 110 72 110ZM72 110M88 124H72H88M88 124M72 124V108V124M72 124M88 108V124V108" fill="#E0E4E8" mask="url(#path-36-inside-2_66_2226)"/>
<rect x="90" width="16" height="16" rx="2" fill="#F1F1F1"/>
<rect x="90" y="18" width="16" height="16" rx="2" fill="#FFE3BA"/>
<rect x="90" y="36" width="16" height="16" rx="2" fill="#F1F1F1"/>
<rect x="90" y="54" width="16" height="16" rx="2" fill="#F1F1F1"/>
<rect x="90" y="72" width="16" height="16" rx="2" fill="#F1F1F1"/>
<rect x="90" y="90" width="16" height="16" rx="2" fill="#F1F1F1"/>
<rect x="90" y="108" width="16" height="16" rx="2" fill="#F1F1F1"/>
<rect x="108" width="16" height="16" rx="2" fill="#F1F1F1"/>
<rect x="108" y="18" width="16" height="16" rx="2" fill="#FFE3BA"/>
<rect x="108" y="36" width="16" height="16" rx="2" fill="#FF7607"/>
<rect x="108" y="54" width="16" height="16" rx="2" fill="#F1F1F1"/>
<rect x="108" y="72" width="16" height="16" rx="2" fill="#FFBC48"/>
<rect x="108" y="90" width="16" height="16" rx="2" fill="#F1F1F1"/>
<rect x="108" y="108" width="16" height="16" rx="2" fill="#F1F1F1"/>
<rect x="126" width="16" height="16" rx="2" fill="#F1F1F1"/>
<rect x="126" y="18" width="16" height="16" rx="2" fill="#F1F1F1"/>
<rect x="126" y="36" width="16" height="16" rx="2" fill="#FF7607"/>
<rect x="126" y="54" width="16" height="16" rx="2" fill="#FF7607"/>
<rect x="126" y="72" width="16" height="16" rx="2" fill="#FFE3BA"/>
<rect x="126" y="90" width="16" height="16" rx="2" fill="#F1F1F1"/>
<rect x="126" y="108" width="16" height="16" rx="2" fill="#F1F1F1"/>
<rect x="144" width="16" height="16" rx="2" fill="#FFE3BA"/>
<rect x="144" y="18" width="16" height="16" rx="2" fill="#FFE3BA"/>
<rect x="144" y="36" width="16" height="16" rx="2" fill="#F1F1F1"/>
<rect x="144" y="54" width="16" height="16" rx="2" fill="#FFE3BA"/>
<rect x="144" y="72" width="16" height="16" rx="2" fill="#FFBC48"/>
<rect x="144" y="90" width="16" height="16" rx="2" fill="#F1F1F1"/>
<mask id="path-65-inside-3_66_2226" fill="white">
<path d="M144 110C144 108.895 144.895 108 146 108H158C159.105 108 160 108.895 160 110V122C160 123.105 159.105 124 158 124H146C144.895 124 144 123.105 144 122V110Z"/>
</mask>
<path d="M144 110C144 108.895 144.895 108 146 108H158C159.105 108 160 108.895 160 110V122C160 123.105 159.105 124 158 124H146C144.895 124 144 123.105 144 122V110Z" fill="#F1F1F1"/>
<path d="M144 110C144 107.791 145.791 106 148 106H156C158.209 106 160 107.791 160 110C160 110 159.105 110 158 110H146C144.895 110 144 110 144 110ZM144 110M160 124H144H160M160 124M144 124V108V124M144 124M160 108V124V108" fill="#E0E4E8" mask="url(#path-65-inside-3_66_2226)"/>
<rect x="162" width="16" height="16" rx="2" fill="#F1F1F1"/>
<rect x="162" y="18" width="16" height="16" rx="2" fill="#FFE3BA"/>
<rect x="162" y="36" width="16" height="16" rx="2" fill="#F1F1F1"/>
<rect x="162" y="54" width="16" height="16" rx="2" fill="#F1F1F1"/>
<rect x="162" y="72" width="16" height="16" rx="2" fill="#FFE3BA"/>
<rect x="162" y="90" width="16" height="16" rx="2" fill="#F1F1F1"/>
<rect x="162" y="108" width="16" height="16" rx="2" fill="#F1F1F1"/>
<rect x="180" width="16" height="16" rx="2" fill="#F1F1F1"/>
<rect x="180" y="18" width="16" height="16" rx="2" fill="#F1F1F1"/>
<rect x="180" y="36" width="16" height="16" rx="2" fill="#F1F1F1"/>
<rect x="180" y="54" width="16" height="16" rx="2" fill="#FFE3BA"/>
<rect x="180" y="72" width="16" height="16" rx="2" fill="#FFBC48"/>
<rect x="180" y="90" width="16" height="16" rx="2" fill="#F1F1F1"/>
<rect x="180" y="108" width="16" height="16" rx="2" fill="#F1F1F1"/>
<rect x="198" width="16" height="16" rx="2" fill="#FFE3BA"/>
<rect x="198" y="18" width="16" height="16" rx="2" fill="#F1F1F1"/>
<rect x="198" y="36" width="16" height="16" rx="2" fill="#FFE3BA"/>
<rect x="198" y="54" width="16" height="16" rx="2" fill="#F1F1F1"/>
<rect x="198" y="72" width="16" height="16" rx="2" fill="#FFE3BA"/>
<rect x="198" y="90" width="16" height="16" rx="2" fill="#F1F1F1"/>
<rect x="198" y="108" width="16" height="16" rx="2" fill="#F1F1F1"/>
<rect x="216" width="16" height="16" rx="2" fill="#F1F1F1"/>
<rect x="216" y="18" width="16" height="16" rx="2" fill="#FFE3BA"/>
<rect x="216" y="36" width="16" height="16" rx="2" fill="#F1F1F1"/>
<rect x="216" y="54" width="16" height="16" rx="2" fill="#FFBC48"/>
<rect x="216" y="72" width="16" height="16" rx="2" fill="#FFE3BA"/>
<rect x="216" y="90" width="16" height="16" rx="2" fill="#F1F1F1"/>
<rect x="216" y="108" width="16" height="16" rx="2" fill="#F1F1F1"/>
<rect x="234" width="16" height="16" rx="2" fill="#FFE3BA"/>
<rect x="234" y="18" width="16" height="16" rx="2" fill="#F1F1F1"/>
<mask id="path-97-inside-4_66_2226" fill="white">
<path d="M234 38C234 36.8954 234.895 36 236 36H248C249.105 36 250 36.8954 250 38V50C250 51.1046 249.105 52 248 52H236C234.895 52 234 51.1046 234 50V38Z"/>
</mask>
<path d="M234 38C234 36.8954 234.895 36 236 36H248C249.105 36 250 36.8954 250 38V50C250 51.1046 249.105 52 248 52H236C234.895 52 234 51.1046 234 50V38Z" fill="#F1F1F1"/>
<path d="M234 38C234 35.7909 235.791 34 238 34H246C248.209 34 250 35.7909 250 38C250 38 249.105 38 248 38H236C234.895 38 234 38 234 38ZM234 38M250 52H234H250M250 52M234 52V36V52M234 52M250 36V52V36" fill="#E0E4E8" mask="url(#path-97-inside-4_66_2226)"/>
<rect x="234" y="54" width="16" height="16" rx="2" fill="#FFE3BA"/>
<rect x="234" y="72" width="16" height="16" rx="2" fill="#F1F1F1"/>
<rect x="234" y="90" width="16" height="16" rx="2" fill="#F1F1F1"/>
<rect x="234" y="108" width="16" height="16" rx="2" fill="#F1F1F1"/>
<rect x="252" width="16" height="16" rx="2" fill="#F1F1F1"/>
<rect x="252" y="18" width="16" height="16" rx="2" fill="#FFE3BA"/>
<rect x="252" y="36" width="16" height="16" rx="2" fill="#FF7607"/>
<rect x="252" y="54" width="16" height="16" rx="2" fill="#F1F1F1"/>
<rect x="252" y="72" width="16" height="16" rx="2" fill="#FFE3BA"/>
<rect x="252" y="90" width="16" height="16" rx="2" fill="#F1F1F1"/>
<rect x="252" y="108" width="16" height="16" rx="2" fill="#F1F1F1"/>
<rect x="270" width="16" height="16" rx="2" fill="#F1F1F1"/>
<rect x="270" y="18" width="16" height="16" rx="2" fill="#FFE3BA"/>
<rect x="270" y="36" width="16" height="16" rx="2" fill="#F1F1F1"/>
<rect x="270" y="54" width="16" height="16" rx="2" fill="#FFE3BA"/>
<rect x="270" y="72" width="16" height="16" rx="2" fill="#F1F1F1"/>
<rect x="270" y="90" width="16" height="16" rx="2" fill="#F1F1F1"/>
<rect x="270" y="108" width="16" height="16" rx="2" fill="#F1F1F1"/>
<rect x="288" width="16" height="16" rx="2" fill="#FFE3BA"/>
<rect x="288" y="18" width="16" height="16" rx="2" fill="#F1F1F1"/>
<rect x="288" y="36" width="16" height="16" rx="2" fill="#FFBC48"/>
<rect x="288" y="54" width="16" height="16" rx="2" fill="#F1F1F1"/>
<rect x="288" y="72" width="16" height="16" rx="2" fill="#F1F1F1"/>
<rect x="288" y="90" width="16" height="16" rx="2" fill="#F1F1F1"/>
<rect x="288" y="108" width="16" height="16" rx="2" fill="#F1F1F1"/>
<rect x="306" width="16" height="16" rx="2" fill="#F1F1F1"/>
<rect x="306" y="18" width="16" height="16" rx="2" fill="#F1F1F1"/>
<rect x="306" y="36" width="16" height="16" rx="2" fill="#F1F1F1"/>
<rect x="306" y="54" width="16" height="16" rx="2" fill="#F1F1F1"/>
<mask id="path-128-inside-5_66_2226" fill="white">
<path d="M306 74C306 72.8954 306.895 72 308 72H320C321.105 72 322 72.8954 322 74V86C322 87.1046 321.105 88 320 88H308C306.895 88 306 87.1046 306 86V74Z"/>
</mask>
<path d="M306 74C306 72.8954 306.895 72 308 72H320C321.105 72 322 72.8954 322 74V86C322 87.1046 321.105 88 320 88H308C306.895 88 306 87.1046 306 86V74Z" fill="#F1F1F1"/>
<path d="M306 74C306 71.7909 307.791 70 310 70H318C320.209 70 322 71.7909 322 74C322 74 321.105 74 320 74H308C306.895 74 306 74 306 74ZM306 74M322 88H306H322M322 88M306 88V72V88M306 88M322 72V88V72" fill="#E0E4E8" mask="url(#path-128-inside-5_66_2226)"/>
<rect x="306" y="90" width="16" height="16" rx="2" fill="#F1F1F1"/>
<rect x="306" y="108" width="16" height="16" rx="2" fill="#F1F1F1"/>
<rect x="324" width="16" height="16" rx="2" fill="#F1F1F1"/>
<rect x="324" y="18" width="16" height="16" rx="2" fill="#FFE3BA"/>
<rect x="324" y="36" width="16" height="16" rx="2" fill="#FFE3BA"/>
<rect x="324" y="54" width="16" height="16" rx="2" fill="#F1F1F1"/>
<rect x="324" y="72" width="16" height="16" rx="2" fill="#FFE3BA"/>
<rect x="324" y="90" width="16" height="16" rx="2" fill="#F1F1F1"/>
<rect x="324" y="108" width="16" height="16" rx="2" fill="#F1F1F1"/>
<rect x="342" width="16" height="16" rx="2" fill="#F1F1F1"/>
<rect x="342" y="18" width="16" height="16" rx="2" fill="#F1F1F1"/>
<rect x="342" y="36" width="16" height="16" rx="2" fill="#F1F1F1"/>
<rect x="342" y="54" width="16" height="16" rx="2" fill="#FFBC48"/>
<rect x="342" y="72" width="16" height="16" rx="2" fill="#F1F1F1"/>
<rect x="342" y="90" width="16" height="16" rx="2" fill="#F1F1F1"/>
<rect x="342" y="108" width="16" height="16" rx="2" fill="#F1F1F1"/>
<rect x="360" width="16" height="16" rx="2" fill="#FFE3BA"/>
<rect x="360" y="18" width="16" height="16" rx="2" fill="#FFE3BA"/>
<rect x="360" y="36" width="16" height="16" rx="2" fill="#FFE3BA"/>
<rect x="360" y="54" width="16" height="16" rx="2" fill="#FFE3BA"/>
<rect x="360" y="72" width="16" height="16" rx="2" fill="#FFE3BA"/>
<rect x="360" y="90" width="16" height="16" rx="2" fill="#F1F1F1"/>
<rect x="360" y="108" width="16" height="16" rx="2" fill="#F1F1F1"/>
<rect x="378" width="16" height="16" rx="2" fill="#F1F1F1"/>
<rect x="378" y="18" width="16" height="16" rx="2" fill="#F1F1F1"/>
<rect x="378" y="36" width="16" height="16" rx="2" fill="#FFBC48"/>
<rect x="378" y="54" width="16" height="16" rx="2" fill="#FFBC48"/>
<rect x="378" y="72" width="16" height="16" rx="2" fill="#FFE3BA"/>
<rect x="378" y="90" width="16" height="16" rx="2" fill="#F1F1F1"/>
<rect x="378" y="108" width="16" height="16" rx="2" fill="#F1F1F1"/>
<mask id="path-160-inside-6_66_2226" fill="white">
<path d="M396 2C396 0.895431 396.895 0 398 0H410C411.105 0 412 0.895431 412 2V14C412 15.1046 411.105 16 410 16H398C396.895 16 396 15.1046 396 14V2Z"/>
</mask>
<path d="M396 2C396 0.895431 396.895 0 398 0H410C411.105 0 412 0.895431 412 2V14C412 15.1046 411.105 16 410 16H398C396.895 16 396 15.1046 396 14V2Z" fill="#FFE3BA"/>
<path d="M396 2C396 -0.209139 397.791 -2 400 -2H408C410.209 -2 412 -0.209139 412 2C412 2 411.105 2 410 2H398C396.895 2 396 2 396 2ZM396 2M412 16H396H412M412 16M396 16V0V16M396 16M412 0V16V0" fill="#E0E4E8" mask="url(#path-160-inside-6_66_2226)"/>
<rect x="396" y="18" width="16" height="16" rx="2" fill="#F1F1F1"/>
<rect x="396" y="36" width="16" height="16" rx="2" fill="#F1F1F1"/>
<rect x="396" y="54" width="16" height="16" rx="2" fill="#F1F1F1"/>
<rect x="396" y="72" width="16" height="16" rx="2" fill="#F1F1F1"/>
<rect x="396" y="90" width="16" height="16" rx="2" fill="#F1F1F1"/>
<rect x="396" y="108" width="16" height="16" rx="2" fill="#F1F1F1"/>
<rect x="414" width="16" height="16" rx="2" fill="#F1F1F1"/>
<rect x="414" y="18" width="16" height="16" rx="2" fill="#FFE3BA"/>
<rect x="414" y="36" width="16" height="16" rx="2" fill="#FFE3BA"/>
<rect x="414" y="54" width="16" height="16" rx="2" fill="#FFE3BA"/>
<rect x="414" y="72" width="16" height="16" rx="2" fill="#F1F1F1"/>
<rect x="414" y="90" width="16" height="16" rx="2" fill="#F1F1F1"/>
<rect x="414" y="108" width="16" height="16" rx="2" fill="#F1F1F1"/>
<rect x="432" width="16" height="16" rx="2" fill="#F1F1F1"/>
<rect x="432" y="18" width="16" height="16" rx="2" fill="#FFE3BA"/>
<rect x="432" y="36" width="16" height="16" rx="2" fill="#F1F1F1"/>
<rect x="432" y="54" width="16" height="16" rx="2" fill="#F1F1F1"/>
<rect x="432" y="72" width="16" height="16" rx="2" fill="#FFE3BA"/>
<rect x="432" y="90" width="16" height="16" rx="2" fill="#F1F1F1"/>
<rect x="432" y="108" width="16" height="16" rx="2" fill="#F1F1F1"/>
<rect x="450" width="16" height="16" rx="2" fill="#F1F1F1"/>
<rect x="450" y="18" width="16" height="16" rx="2" fill="#F1F1F1"/>
<rect x="450" y="36" width="16" height="16" rx="2" fill="#FFE3BA"/>
<rect x="450" y="54" width="16" height="16" rx="2" fill="#F1F1F1"/>
<rect x="450" y="72" width="16" height="16" rx="2" fill="#F1F1F1"/>
<rect x="450" y="90" width="16" height="16" rx="2" fill="#F1F1F1"/>
<rect x="450" y="108" width="16" height="16" rx="2" fill="#F1F1F1"/>
<rect x="468" width="16" height="16" rx="2" fill="#FFE3BA"/>
<rect x="468" y="18" width="16" height="16" rx="2" fill="#FFE3BA"/>
<mask id="path-191-inside-7_66_2226" fill="white">
<path d="M468 38C468 36.8954 468.895 36 470 36H482C483.105 36 484 36.8954 484 38V50C484 51.1046 483.105 52 482 52H470C468.895 52 468 51.1046 468 50V38Z"/>
</mask>
<path d="M468 38C468 36.8954 468.895 36 470 36H482C483.105 36 484 36.8954 484 38V50C484 51.1046 483.105 52 482 52H470C468.895 52 468 51.1046 468 50V38Z" fill="#FF7607"/>
<path d="M468 38C468 35.7909 469.791 34 472 34H480C482.209 34 484 35.7909 484 38C484 38 483.105 38 482 38H470C468.895 38 468 38 468 38ZM468 38M484 52H468H484M484 52M468 52V36V52M468 52M484 36V52V36" fill="#E0E4E8" mask="url(#path-191-inside-7_66_2226)"/>
<rect x="468" y="54" width="16" height="16" rx="2" fill="#FFBC48"/>
<rect x="468" y="72" width="16" height="16" rx="2" fill="#FFBC48"/>
<rect x="468" y="90" width="16" height="16" rx="2" fill="#F1F1F1"/>
<rect x="468" y="108" width="16" height="16" rx="2" fill="#F1F1F1"/>
<rect x="486" width="16" height="16" rx="2" fill="#F1F1F1"/>
<rect x="486" y="18" width="16" height="16" rx="2" fill="#F1F1F1"/>
<rect x="486" y="36" width="16" height="16" rx="2" fill="#FFE3BA"/>
<rect x="486" y="54" width="16" height="16" rx="2" fill="#FFE3BA"/>
<rect x="486" y="72" width="16" height="16" rx="2" fill="#F1F1F1"/>
<rect x="486" y="90" width="16" height="16" rx="2" fill="#F1F1F1"/>
<rect x="486" y="108" width="16" height="16" rx="2" fill="#F1F1F1"/>
<rect x="504" width="16" height="16" rx="2" fill="#F1F1F1"/>
<rect x="504" y="18" width="16" height="16" rx="2" fill="#F1F1F1"/>
<rect x="504" y="36" width="16" height="16" rx="2" fill="#F1F1F1"/>
<rect x="504" y="54" width="16" height="16" rx="2" fill="#F1F1F1"/>
<rect x="504" y="72" width="16" height="16" rx="2" fill="#F1F1F1"/>
<rect x="504" y="90" width="16" height="16" rx="2" fill="#F1F1F1"/>
<rect x="504" y="108" width="16" height="16" rx="2" fill="#F1F1F1"/>
<rect x="522" width="16" height="16" rx="2" fill="#F1F1F1"/>
<rect x="522" y="18" width="16" height="16" rx="2" fill="#FFE3BA"/>
<rect x="522" y="36" width="16" height="16" rx="2" fill="#F1F1F1"/>
<rect x="522" y="54" width="16" height="16" rx="2" fill="#F1F1F1"/>
<rect x="522" y="72" width="16" height="16" rx="2" fill="#FFE3BA"/>
<rect x="522" y="90" width="16" height="16" rx="2" fill="#F1F1F1"/>
<rect x="522" y="108" width="16" height="16" rx="2" fill="#F1F1F1"/>
<rect x="540" width="16" height="16" rx="2" fill="#F1F1F1"/>
<rect x="540" y="18" width="16" height="16" rx="2" fill="#FFE3BA"/>
<rect x="540" y="36" width="16" height="16" rx="2" fill="#F1F1F1"/>
<rect x="540" y="54" width="16" height="16" rx="2" fill="#FFE3BA"/>
<rect x="540" y="72" width="16" height="16" rx="2" fill="#F1F1F1"/>
<mask id="path-223-inside-8_66_2226" fill="white">
<path d="M540 92C540 90.8954 540.895 90 542 90H554C555.105 90 556 90.8954 556 92V104C556 105.105 555.105 106 554 106H542C540.895 106 540 105.105 540 104V92Z"/>
</mask>
<path d="M540 92C540 90.8954 540.895 90 542 90H554C555.105 90 556 90.8954 556 92V104C556 105.105 555.105 106 554 106H542C540.895 106 540 105.105 540 104V92Z" fill="#F1F1F1"/>
<path d="M540 92C540 89.7909 541.791 88 544 88H552C554.209 88 556 89.7909 556 92C556 92 555.105 92 554 92H542C540.895 92 540 92 540 92ZM540 92M556 106H540H556M556 106M540 106V90V106M540 106M556 90V106V90" fill="#E0E4E8" mask="url(#path-223-inside-8_66_2226)"/>
<rect x="540" y="108" width="16" height="16" rx="2" fill="#F1F1F1"/>
<rect x="558" width="16" height="16" rx="2" fill="#FFE3BA"/>
<rect x="558" y="18" width="16" height="16" rx="2" fill="#FF7607"/>
<rect x="558" y="36" width="16" height="16" rx="2" fill="#FFE3BA"/>
<rect x="558" y="54" width="16" height="16" rx="2" fill="#FFE3BA"/>
<rect x="558" y="72" width="16" height="16" rx="2" fill="#F1F1F1"/>
<rect x="558" y="90" width="16" height="16" rx="2" fill="#F1F1F1"/>
<rect x="558" y="108" width="16" height="16" rx="2" fill="#F1F1F1"/>
<rect x="576" width="16" height="16" rx="2" fill="#F1F1F1"/>
<rect x="576" y="18" width="16" height="16" rx="2" fill="#FFE3BA"/>
<rect x="576" y="36" width="16" height="16" rx="2" fill="#F1F1F1"/>
<rect x="576" y="54" width="16" height="16" rx="2" fill="#F1F1F1"/>
<rect x="576" y="72" width="16" height="16" rx="2" fill="#FFBC48"/>
<rect x="576" y="90" width="16" height="16" rx="2" fill="#F1F1F1"/>
<rect x="576" y="108" width="16" height="16" rx="2" fill="#F1F1F1"/>
<rect x="594" width="16" height="16" rx="2" fill="#F1F1F1"/>
<rect x="594" y="18" width="16" height="16" rx="2" fill="#FFBC48"/>
<rect x="594" y="36" width="16" height="16" rx="2" fill="#F1F1F1"/>
<rect x="594" y="54" width="16" height="16" rx="2" fill="#FFBC48"/>
<rect x="594" y="72" width="16" height="16" rx="2" fill="#F1F1F1"/>
<rect x="594" y="90" width="16" height="16" rx="2" fill="#F1F1F1"/>
<rect x="594" y="108" width="16" height="16" rx="2" fill="#F1F1F1"/>
<rect x="612" width="16" height="16" rx="2" fill="#F1F1F1"/>
<rect x="612" y="18" width="16" height="16" rx="2" fill="#F1F1F1"/>
<rect x="612" y="36" width="16" height="16" rx="2" fill="#F1F1F1"/>
<rect x="612" y="54" width="16" height="16" rx="2" fill="#FFBC48"/>
<rect x="612" y="72" width="16" height="16" rx="2" fill="#F1F1F1"/>
<rect x="612" y="90" width="16" height="16" rx="2" fill="#F1F1F1"/>
<rect x="612" y="108" width="16" height="16" rx="2" fill="#F1F1F1"/>
<rect x="630" width="16" height="16" rx="2" fill="#FFE3BA"/>
<mask id="path-255-inside-9_66_2226" fill="white">
<path d="M630 20C630 18.8954 630.895 18 632 18H644C645.105 18 646 18.8954 646 20V32C646 33.1046 645.105 34 644 34H632C630.895 34 630 33.1046 630 32V20Z"/>
</mask>
<path d="M630 20C630 18.8954 630.895 18 632 18H644C645.105 18 646 18.8954 646 20V32C646 33.1046 645.105 34 644 34H632C630.895 34 630 33.1046 630 32V20Z" fill="#F1F1F1"/>
<path d="M630 20C630 17.7909 631.791 16 634 16H642C644.209 16 646 17.7909 646 20C646 20 645.105 20 644 20H632C630.895 20 630 20 630 20ZM630 20M646 34H630H646M646 34M630 34V18V34M630 34M646 18V34V18" fill="#E0E4E8" mask="url(#path-255-inside-9_66_2226)"/>
<rect x="630" y="36" width="16" height="16" rx="2" fill="#F1F1F1"/>
<rect x="630" y="54" width="16" height="16" rx="2" fill="#FFE3BA"/>
<rect x="630" y="72" width="16" height="16" rx="2" fill="#FFE3BA"/>
<rect x="630" y="90" width="16" height="16" rx="2" fill="#F1F1F1"/>
<rect x="630" y="108" width="16" height="16" rx="2" fill="#F1F1F1"/>
<rect x="648" width="16" height="16" rx="2" fill="#F1F1F1"/>
<rect x="648" y="18" width="16" height="16" rx="2" fill="#FFE3BA"/>
<rect x="648" y="36" width="16" height="16" rx="2" fill="#FF7607"/>
<rect x="648" y="54" width="16" height="16" rx="2" fill="#F1F1F1"/>
<rect x="648" y="72" width="16" height="16" rx="2" fill="#FFBC48"/>
<rect x="648" y="90" width="16" height="16" rx="2" fill="#F1F1F1"/>
<rect x="648" y="108" width="16" height="16" rx="2" fill="#F1F1F1"/>
<rect x="666" width="16" height="16" rx="2" fill="#F1F1F1"/>
<rect x="666" y="18" width="16" height="16" rx="2" fill="#F1F1F1"/>
<rect x="666" y="36" width="16" height="16" rx="2" fill="#FFE3BA"/>
<rect x="666" y="54" width="16" height="16" rx="2" fill="#FFBC48"/>
<rect x="666" y="72" width="16" height="16" rx="2" fill="#FF7607"/>
<rect x="666" y="90" width="16" height="16" rx="2" fill="#F1F1F1"/>
<rect x="666" y="108" width="16" height="16" rx="2" fill="#F1F1F1"/>
<rect x="684" width="16" height="16" rx="2" fill="#F1F1F1"/>
<rect x="684" y="18" width="16" height="16" rx="2" fill="#F1F1F1"/>
<rect x="684" y="36" width="16" height="16" rx="2" fill="#F1F1F1"/>
<rect x="684" y="54" width="16" height="16" rx="2" fill="#F1F1F1"/>
<rect x="684" y="72" width="16" height="16" rx="2" fill="#F1F1F1"/>
<rect x="684" y="90" width="16" height="16" rx="2" fill="#F1F1F1"/>
<rect x="684" y="108" width="16" height="16" rx="2" fill="#F1F1F1"/>
<rect x="702" width="16" height="16" rx="2" fill="#FFE3BA"/>
<rect x="702" y="18" width="16" height="16" rx="2" fill="#F1F1F1"/>
<rect x="702" y="36" width="16" height="16" rx="2" fill="#F1F1F1"/>
<mask id="path-286-inside-10_66_2226" fill="white">
<path d="M702 56C702 54.8954 702.895 54 704 54H716C717.105 54 718 54.8954 718 56V68C718 69.1046 717.105 70 716 70H704C702.895 70 702 69.1046 702 68V56Z"/>
</mask>
<path d="M702 56C702 54.8954 702.895 54 704 54H716C717.105 54 718 54.8954 718 56V68C718 69.1046 717.105 70 716 70H704C702.895 70 702 69.1046 702 68V56Z" fill="#F1F1F1"/>
<path d="M702 56C702 53.7909 703.791 52 706 52H714C716.209 52 718 53.7909 718 56C718 56 717.105 56 716 56H704C702.895 56 702 56 702 56ZM702 56M718 70H702H718M718 70M702 70V54V70M702 70M718 54V70V54" fill="#E0E4E8" mask="url(#path-286-inside-10_66_2226)"/>
<rect x="702" y="72" width="16" height="16" rx="2" fill="#FFBC48"/>
<rect x="702" y="90" width="16" height="16" rx="2" fill="#F1F1F1"/>
<rect x="702" y="108" width="16" height="16" rx="2" fill="#F1F1F1"/>
<rect x="720" width="16" height="16" rx="2" fill="#F1F1F1"/>
<rect x="720" y="18" width="16" height="16" rx="2" fill="#FFE3BA"/>
<rect x="720" y="36" width="16" height="16" rx="2" fill="#FFBC48"/>
<rect x="720" y="54" width="16" height="16" rx="2" fill="#F1F1F1"/>
<rect x="720" y="72" width="16" height="16" rx="2" fill="#FFBC48"/>
<rect x="720" y="90" width="16" height="16" rx="2" fill="#F1F1F1"/>
<rect x="720" y="108" width="16" height="16" rx="2" fill="#F1F1F1"/>
<rect x="738" width="16" height="16" rx="2" fill="#FFE3BA"/>
<rect x="738" y="18" width="16" height="16" rx="2" fill="#FFE3BA"/>
<rect x="738" y="36" width="16" height="16" rx="2" fill="#F1F1F1"/>
<rect x="738" y="54" width="16" height="16" rx="2" fill="#FFE3BA"/>
<rect x="738" y="72" width="16" height="16" rx="2" fill="#F1F1F1"/>
<rect x="738" y="90" width="16" height="16" rx="2" fill="#F1F1F1"/>
<rect x="738" y="108" width="16" height="16" rx="2" fill="#F1F1F1"/>
<rect x="756" width="16" height="16" rx="2" fill="#F1F1F1"/>
<rect x="756" y="18" width="16" height="16" rx="2" fill="#F1F1F1"/>
<rect x="756" y="36" width="16" height="16" rx="2" fill="#FF7607"/>
<rect x="756" y="54" width="16" height="16" rx="2" fill="#F1F1F1"/>
<rect x="756" y="72" width="16" height="16" rx="2" fill="#F1F1F1"/>
<rect x="756" y="90" width="16" height="16" rx="2" fill="#F1F1F1"/>
<rect x="756" y="108" width="16" height="16" rx="2" fill="#F1F1F1"/>
<rect x="774" width="16" height="16" rx="2" fill="#FFE3BA"/>
<rect x="774" y="18" width="16" height="16" rx="2" fill="#FFE3BA"/>
<rect x="774" y="36" width="16" height="16" rx="2" fill="#FF7607"/>
<rect x="774" y="54" width="16" height="16" rx="2" fill="#FFE3BA"/>
<rect x="774" y="72" width="16" height="16" rx="2" fill="#FFBC48"/>
<rect x="774" y="90" width="16" height="16" rx="2" fill="#F1F1F1"/>
<mask id="path-318-inside-11_66_2226" fill="white">
<path d="M774 110C774 108.895 774.895 108 776 108H788C789.105 108 790 108.895 790 110V122C790 123.105 789.105 124 788 124H776C774.895 124 774 123.105 774 122V110Z"/>
</mask>
<path d="M774 110C774 108.895 774.895 108 776 108H788C789.105 108 790 108.895 790 110V122C790 123.105 789.105 124 788 124H776C774.895 124 774 123.105 774 122V110Z" fill="#F1F1F1"/>
<path d="M774 110C774 107.791 775.791 106 778 106H786C788.209 106 790 107.791 790 110C790 110 789.105 110 788 110H776C774.895 110 774 110 774 110ZM774 110M790 124H774H790M790 124M774 124V108V124M774 124M790 108V124V108" fill="#E0E4E8" mask="url(#path-318-inside-11_66_2226)"/>
<rect x="792" width="16" height="16" rx="2" fill="#F1F1F1"/>
<rect x="792" y="18" width="16" height="16" rx="2" fill="#F1F1F1"/>
<rect x="792" y="36" width="16" height="16" rx="2" fill="#F1F1F1"/>
<rect x="792" y="54" width="16" height="16" rx="2" fill="#F1F1F1"/>
<rect x="792" y="72" width="16" height="16" rx="2" fill="#F1F1F1"/>
<rect x="792" y="90" width="16" height="16" rx="2" fill="#F1F1F1"/>
<rect x="792" y="108" width="16" height="16" rx="2" fill="#F1F1F1"/>
<rect x="810" width="16" height="16" rx="2" fill="#F1F1F1"/>
<rect x="810" y="18" width="16" height="16" rx="2" fill="#FFE3BA"/>
<rect x="810" y="36" width="16" height="16" rx="2" fill="#F1F1F1"/>
<rect x="810" y="54" width="16" height="16" rx="2" fill="#FFBC48"/>
<rect x="810" y="72" width="16" height="16" rx="2" fill="#F1F1F1"/>
<rect x="810" y="90" width="16" height="16" rx="2" fill="#F1F1F1"/>
<rect x="810" y="108" width="16" height="16" rx="2" fill="#F1F1F1"/>
<rect x="828" width="16" height="16" rx="2" fill="#FFE3BA"/>
<rect x="828" y="18" width="16" height="16" rx="2" fill="#F1F1F1"/>
<rect x="828" y="36" width="16" height="16" rx="2" fill="#FFE3BA"/>
<rect x="828" y="54" width="16" height="16" rx="2" fill="#F1F1F1"/>
<rect x="828" y="72" width="16" height="16" rx="2" fill="#FFE3BA"/>
<rect x="828" y="90" width="16" height="16" rx="2" fill="#F1F1F1"/>
<rect x="828" y="108" width="16" height="16" rx="2" fill="#F1F1F1"/>
<rect x="846" width="16" height="16" rx="2" fill="#F1F1F1"/>
<rect x="846" y="18" width="16" height="16" rx="2" fill="#F1F1F1"/>
<rect x="846" y="36" width="16" height="16" rx="2" fill="#F1F1F1"/>
<rect x="846" y="54" width="16" height="16" rx="2" fill="#F1F1F1"/>
<rect x="846" y="72" width="16" height="16" rx="2" fill="#F1F1F1"/>
<rect x="846" y="90" width="16" height="16" rx="2" fill="#F1F1F1"/>
<rect x="846" y="108" width="16" height="16" rx="2" fill="#F1F1F1"/>
<rect x="864" width="16" height="16" rx="2" fill="#F1F1F1"/>
<mask id="path-349-inside-12_66_2226" fill="white">
<path d="M864 20C864 18.8954 864.895 18 866 18H878C879.105 18 880 18.8954 880 20V32C880 33.1046 879.105 34 878 34H866C864.895 34 864 33.1046 864 32V20Z"/>
</mask>
<path d="M864 20C864 18.8954 864.895 18 866 18H878C879.105 18 880 18.8954 880 20V32C880 33.1046 879.105 34 878 34H866C864.895 34 864 33.1046 864 32V20Z" fill="#FFE3BA"/>
<path d="M864 20C864 17.7909 865.791 16 868 16H876C878.209 16 880 17.7909 880 20C880 20 879.105 20 878 20H866C864.895 20 864 20 864 20ZM864 20M880 34H864H880M880 34M864 34V18V34M864 34M880 18V34V18" fill="#E0E4E8" mask="url(#path-349-inside-12_66_2226)"/>
<rect x="864" y="36" width="16" height="16" rx="2" fill="#FF7607"/>
<rect x="864" y="54" width="16" height="16" rx="2" fill="#FFE3BA"/>
<rect x="864" y="72" width="16" height="16" rx="2" fill="#FFBC48"/>
<rect x="864" y="90" width="16" height="16" rx="2" fill="#F1F1F1"/>
<rect x="864" y="108" width="16" height="16" rx="2" fill="#F1F1F1"/>
<rect x="882" width="16" height="16" rx="2" fill="#FFE3BA"/>
<rect x="882" y="18" width="16" height="16" rx="2" fill="#F1F1F1"/>
<rect x="882" y="36" width="16" height="16" rx="2" fill="#F1F1F1"/>
<rect x="882" y="54" width="16" height="16" rx="2" fill="#FFE3BA"/>
<rect x="882" y="72" width="16" height="16" rx="2" fill="#F1F1F1"/>
<rect x="882" y="90" width="16" height="16" rx="2" fill="#F1F1F1"/>
<rect x="882" y="108" width="16" height="16" rx="2" fill="#F1F1F1"/>
<rect x="900" width="16" height="16" rx="2" fill="#FFE3BA"/>
<rect x="900" y="18" width="16" height="16" rx="2" fill="#F1F1F1"/>
<rect x="900" y="36" width="16" height="16" rx="2" fill="#FFE3BA"/>
<rect x="900" y="54" width="16" height="16" rx="2" fill="#FFBC48"/>
<rect x="900" y="72" width="16" height="16" rx="2" fill="#FFE3BA"/>
<rect x="900" y="90" width="16" height="16" rx="2" fill="#F1F1F1"/>
<rect x="900" y="108" width="16" height="16" rx="2" fill="#F1F1F1"/>
<rect x="918" width="16" height="16" rx="2" fill="#F1F1F1"/>
<rect x="918" y="18" width="16" height="16" rx="2" fill="#F1F1F1"/>
<rect x="918" y="36" width="16" height="16" rx="2" fill="#F1F1F1"/>
<rect x="918" y="54" width="16" height="16" rx="2" fill="#FFBC48"/>
<rect x="918" y="72" width="16" height="16" rx="2" fill="#F1F1F1"/>
<rect x="918" y="90" width="16" height="16" rx="2" fill="#F1F1F1"/>
<rect x="918" y="108" width="16" height="16" rx="2" fill="#F1F1F1"/>
<rect x="936" width="16" height="16" rx="2" fill="#F1F1F1"/>
<rect x="936" y="18" width="16" height="16" rx="2" fill="#F1F1F1"/>
<rect x="936" y="36" width="16" height="16" rx="2" fill="#FFBC48"/>
<rect x="936" y="54" width="16" height="16" rx="2" fill="#FFE3BA"/>
<rect x="936.5" y="72.5" width="15" height="15" rx="1.5" stroke="#F1F1F1"/>
<rect x="936.5" y="90.5" width="15" height="15" rx="1.5" stroke="#F1F1F1"/>
<rect x="936.5" y="108.5" width="15" height="15" rx="1.5" stroke="#F1F1F1"/>
</svg>
